<mxfile host="app.diagrams.net" modified="2021-01-28T22:21:14.241Z" agent="5.0 (Windows NT 10.0; Win64; x64) AppleWebKit/537.36 (KHTML, like Gecko) Chrome/87.0.4280.141 Safari/537.36" etag="eXKwD9aVB5vnPnybTTS4" version="14.2.7" type="github">
  <diagram name="Page-1" id="64c3da0e-402f-94eb-ee01-a36477274f13">
    <mxGraphModel dx="1205" dy="449" grid="1" gridSize="10" guides="1" tooltips="1" connect="1" arrows="1" fold="1" page="1" pageScale="1" pageWidth="1169" pageHeight="826" background="#ffffff" math="0" shadow="0">
      <root>
        <mxCell id="0" />
        <mxCell id="1" parent="0" />
        <mxCell id="2" value="Videos ClassificationÂ " style="whiteSpace=wrap;rounded=1;shadow=1;fillColor=#10739E;strokeColor=none;fontColor=#FFFFFF;fontStyle=1;fontSize=24" parent="1" vertex="1">
          <mxGeometry x="1000" y="50" width="340" height="60" as="geometry" />
        </mxCell>
        <mxCell id="3" value="Audio" style="whiteSpace=wrap;rounded=1;fillColor=#F2931E;strokeColor=none;shadow=1;fontColor=#FFFFFF;fontStyle=1;fontSize=14" parent="1" vertex="1">
          <mxGeometry x="1640" y="169.9999999999998" width="140" height="60" as="geometry" />
        </mxCell>
        <mxCell id="233" value="" style="edgeStyle=elbowEdgeStyle;elbow=vertical;rounded=0;fontColor=#000000;endArrow=none;endFill=0;strokeWidth=8;strokeColor=#23445D;" parent="1" source="2" edge="1">
          <mxGeometry width="100" height="100" relative="1" as="geometry">
            <mxPoint x="580" y="180" as="sourcePoint" />
            <mxPoint x="1710" y="169.99999999999977" as="targetPoint" />
          </mxGeometry>
        </mxCell>
        <mxCell id="0o5YoTxNY9EOvEFGqfGp-242" value="Video" style="whiteSpace=wrap;rounded=1;fillColor=#F2931E;strokeColor=none;shadow=1;fontColor=#FFFFFF;fontStyle=1;fontSize=14" vertex="1" parent="1">
          <mxGeometry x="531" y="169.9999999999998" width="140" height="60" as="geometry" />
        </mxCell>
        <mxCell id="0o5YoTxNY9EOvEFGqfGp-244" value="SUB-TASK 2" style="whiteSpace=wrap;rounded=1;fillColor=#12AAB5;strokeColor=none;shadow=1;fontColor=#FFFFFF;" vertex="1" parent="1">
          <mxGeometry x="2080" y="210.0000000000001" width="120" height="60" as="geometry" />
        </mxCell>
        <mxCell id="0o5YoTxNY9EOvEFGqfGp-245" value="WORK&#xa;PACKAGE 1" style="whiteSpace=wrap;rounded=1;fillColor=#999999;strokeColor=none;shadow=1;fontColor=#FFFFFF;fontStyle=0" vertex="1" parent="1">
          <mxGeometry x="1879.9999999999998" y="310.0000000000001" width="120" height="60" as="geometry" />
        </mxCell>
        <mxCell id="0o5YoTxNY9EOvEFGqfGp-246" value="WORK&#xa;PACKAGE 2" style="whiteSpace=wrap;rounded=1;fillColor=#999999;strokeColor=none;shadow=1;fontColor=#FFFFFF;fontStyle=0" vertex="1" parent="1">
          <mxGeometry x="1880" y="390.0000000000001" width="120" height="60" as="geometry" />
        </mxCell>
        <mxCell id="0o5YoTxNY9EOvEFGqfGp-247" value="WORK&#xa;PACKAGE 3" style="whiteSpace=wrap;rounded=1;fillColor=#999999;strokeColor=none;shadow=1;fontColor=#FFFFFF;fontStyle=0" vertex="1" parent="1">
          <mxGeometry x="1879.9999999999998" y="470.0000000000001" width="120" height="60" as="geometry" />
        </mxCell>
        <mxCell id="0o5YoTxNY9EOvEFGqfGp-248" value="WORK&#xa;PACKAGE 4" style="whiteSpace=wrap;rounded=1;fillColor=#999999;strokeColor=none;shadow=1;fontColor=#FFFFFF;fontStyle=0" vertex="1" parent="1">
          <mxGeometry x="1880" y="550.0000000000001" width="120" height="60" as="geometry" />
        </mxCell>
        <mxCell id="0o5YoTxNY9EOvEFGqfGp-249" value="WORK&#xa;PACKAGE 5" style="whiteSpace=wrap;rounded=1;fillColor=#999999;strokeColor=none;shadow=1;fontColor=#FFFFFF;fontStyle=0" vertex="1" parent="1">
          <mxGeometry x="1880" y="630.0000000000001" width="120" height="60" as="geometry" />
        </mxCell>
        <mxCell id="0o5YoTxNY9EOvEFGqfGp-250" value="WORK&#xa;PACKAGE 1" style="whiteSpace=wrap;rounded=1;fillColor=#999999;strokeColor=none;shadow=1;fontColor=#FFFFFF;fontStyle=0" vertex="1" parent="1">
          <mxGeometry x="2079.999999999999" y="310.0000000000001" width="120" height="60" as="geometry" />
        </mxCell>
        <mxCell id="0o5YoTxNY9EOvEFGqfGp-251" value="WORK&#xa;PACKAGE 2" style="whiteSpace=wrap;rounded=1;fillColor=#999999;strokeColor=none;shadow=1;fontColor=#FFFFFF;fontStyle=0" vertex="1" parent="1">
          <mxGeometry x="2079.9999999999995" y="390.0000000000001" width="120" height="60" as="geometry" />
        </mxCell>
        <mxCell id="0o5YoTxNY9EOvEFGqfGp-252" value="WORK&#xa;PACKAGE 3" style="whiteSpace=wrap;rounded=1;fillColor=#999999;strokeColor=none;shadow=1;fontColor=#FFFFFF;fontStyle=0" vertex="1" parent="1">
          <mxGeometry x="2079.9999999999995" y="470.0000000000001" width="120" height="60" as="geometry" />
        </mxCell>
        <mxCell id="0o5YoTxNY9EOvEFGqfGp-253" value="WORK&#xa;PACKAGE 4" style="whiteSpace=wrap;rounded=1;fillColor=#999999;strokeColor=none;shadow=1;fontColor=#FFFFFF;fontStyle=0" vertex="1" parent="1">
          <mxGeometry x="2079.9999999999995" y="550.0000000000001" width="120" height="60" as="geometry" />
        </mxCell>
        <mxCell id="0o5YoTxNY9EOvEFGqfGp-254" value="WORK&#xa;PACKAGE 5" style="whiteSpace=wrap;rounded=1;fillColor=#999999;strokeColor=none;shadow=1;fontColor=#FFFFFF;fontStyle=0" vertex="1" parent="1">
          <mxGeometry x="2080" y="630.0000000000001" width="120" height="60" as="geometry" />
        </mxCell>
        <mxCell id="0o5YoTxNY9EOvEFGqfGp-257" value="" style="edgeStyle=elbowEdgeStyle;elbow=horizontal;rounded=0;fontColor=#000000;endArrow=none;endFill=0;strokeWidth=8;strokeColor=#23445D;" edge="1" parent="1" target="0o5YoTxNY9EOvEFGqfGp-245">
          <mxGeometry width="100" height="100" relative="1" as="geometry">
            <mxPoint x="1880" y="240" as="sourcePoint" />
            <mxPoint x="1869.9999999999995" y="340" as="targetPoint" />
            <Array as="points">
              <mxPoint x="1860" y="290" />
            </Array>
          </mxGeometry>
        </mxCell>
        <mxCell id="0o5YoTxNY9EOvEFGqfGp-258" value="" style="edgeStyle=elbowEdgeStyle;elbow=horizontal;rounded=0;fontColor=#000000;endArrow=none;endFill=0;strokeWidth=8;strokeColor=#23445D;" edge="1" parent="1" target="0o5YoTxNY9EOvEFGqfGp-246">
          <mxGeometry width="100" height="100" relative="1" as="geometry">
            <mxPoint x="1880" y="240" as="sourcePoint" />
            <mxPoint x="1869.9999999999998" y="420" as="targetPoint" />
            <Array as="points">
              <mxPoint x="1860" y="330" />
            </Array>
          </mxGeometry>
        </mxCell>
        <mxCell id="0o5YoTxNY9EOvEFGqfGp-259" value="" style="edgeStyle=elbowEdgeStyle;elbow=horizontal;rounded=0;fontColor=#000000;endArrow=none;endFill=0;strokeWidth=8;strokeColor=#23445D;" edge="1" parent="1" target="0o5YoTxNY9EOvEFGqfGp-249">
          <mxGeometry width="100" height="100" relative="1" as="geometry">
            <mxPoint x="1880" y="240" as="sourcePoint" />
            <mxPoint x="1870" y="660" as="targetPoint" />
            <Array as="points">
              <mxPoint x="1860" y="460" />
            </Array>
          </mxGeometry>
        </mxCell>
        <mxCell id="0o5YoTxNY9EOvEFGqfGp-260" value="" style="edgeStyle=elbowEdgeStyle;elbow=horizontal;rounded=0;fontColor=#000000;endArrow=none;endFill=0;strokeWidth=8;strokeColor=#23445D;" edge="1" parent="1" target="0o5YoTxNY9EOvEFGqfGp-248">
          <mxGeometry width="100" height="100" relative="1" as="geometry">
            <mxPoint x="1880" y="240" as="sourcePoint" />
            <mxPoint x="1870" y="580" as="targetPoint" />
            <Array as="points">
              <mxPoint x="1860" y="410" />
            </Array>
          </mxGeometry>
        </mxCell>
        <mxCell id="0o5YoTxNY9EOvEFGqfGp-261" value="" style="edgeStyle=elbowEdgeStyle;elbow=horizontal;rounded=0;fontColor=#000000;endArrow=none;endFill=0;strokeWidth=8;strokeColor=#23445D;" edge="1" parent="1" target="0o5YoTxNY9EOvEFGqfGp-247">
          <mxGeometry width="100" height="100" relative="1" as="geometry">
            <mxPoint x="1880" y="240" as="sourcePoint" />
            <mxPoint x="1869.9999999999998" y="500" as="targetPoint" />
            <Array as="points">
              <mxPoint x="1860" y="380" />
            </Array>
          </mxGeometry>
        </mxCell>
        <mxCell id="0o5YoTxNY9EOvEFGqfGp-262" value="" style="edgeStyle=elbowEdgeStyle;elbow=horizontal;rounded=0;fontColor=#000000;endArrow=none;endFill=0;strokeWidth=8;strokeColor=#23445D;" edge="1" parent="1" source="0o5YoTxNY9EOvEFGqfGp-244" target="0o5YoTxNY9EOvEFGqfGp-250">
          <mxGeometry width="100" height="100" relative="1" as="geometry">
            <mxPoint x="2050" y="240.00000000000045" as="sourcePoint" />
            <mxPoint x="2059.9999999999995" y="340" as="targetPoint" />
            <Array as="points">
              <mxPoint x="2060" y="290" />
            </Array>
          </mxGeometry>
        </mxCell>
        <mxCell id="0o5YoTxNY9EOvEFGqfGp-263" value="" style="edgeStyle=elbowEdgeStyle;elbow=horizontal;rounded=0;fontColor=#000000;endArrow=none;endFill=0;strokeWidth=8;strokeColor=#23445D;" edge="1" parent="1" source="0o5YoTxNY9EOvEFGqfGp-244" target="0o5YoTxNY9EOvEFGqfGp-251">
          <mxGeometry width="100" height="100" relative="1" as="geometry">
            <mxPoint x="2060" y="240" as="sourcePoint" />
            <mxPoint x="2060" y="420" as="targetPoint" />
            <Array as="points">
              <mxPoint x="2060" y="330" />
            </Array>
          </mxGeometry>
        </mxCell>
        <mxCell id="0o5YoTxNY9EOvEFGqfGp-264" value="" style="edgeStyle=elbowEdgeStyle;elbow=horizontal;rounded=0;fontColor=#000000;endArrow=none;endFill=0;strokeWidth=8;strokeColor=#23445D;" edge="1" parent="1" source="0o5YoTxNY9EOvEFGqfGp-244" target="0o5YoTxNY9EOvEFGqfGp-254">
          <mxGeometry width="100" height="100" relative="1" as="geometry">
            <mxPoint x="2060" y="240" as="sourcePoint" />
            <mxPoint x="2060" y="660" as="targetPoint" />
            <Array as="points">
              <mxPoint x="2060" y="450" />
            </Array>
          </mxGeometry>
        </mxCell>
        <mxCell id="0o5YoTxNY9EOvEFGqfGp-265" value="" style="edgeStyle=elbowEdgeStyle;elbow=horizontal;rounded=0;fontColor=#000000;endArrow=none;endFill=0;strokeWidth=8;strokeColor=#23445D;" edge="1" parent="1" source="0o5YoTxNY9EOvEFGqfGp-244" target="0o5YoTxNY9EOvEFGqfGp-253">
          <mxGeometry width="100" height="100" relative="1" as="geometry">
            <mxPoint x="2060" y="240" as="sourcePoint" />
            <mxPoint x="2060" y="580" as="targetPoint" />
            <Array as="points">
              <mxPoint x="2060" y="410" />
            </Array>
          </mxGeometry>
        </mxCell>
        <mxCell id="0o5YoTxNY9EOvEFGqfGp-266" value="" style="edgeStyle=elbowEdgeStyle;elbow=horizontal;rounded=0;fontColor=#000000;endArrow=none;endFill=0;strokeWidth=8;strokeColor=#23445D;" edge="1" parent="1" source="0o5YoTxNY9EOvEFGqfGp-244" target="0o5YoTxNY9EOvEFGqfGp-252">
          <mxGeometry width="100" height="100" relative="1" as="geometry">
            <mxPoint x="2060" y="240" as="sourcePoint" />
            <mxPoint x="2060" y="500" as="targetPoint" />
            <Array as="points">
              <mxPoint x="2060" y="380" />
            </Array>
          </mxGeometry>
        </mxCell>
        <mxCell id="0o5YoTxNY9EOvEFGqfGp-267" value="" style="edgeStyle=elbowEdgeStyle;elbow=vertical;rounded=0;fontColor=#000000;endArrow=none;endFill=0;strokeWidth=8;strokeColor=#23445D;" edge="1" parent="1" target="0o5YoTxNY9EOvEFGqfGp-242">
          <mxGeometry width="100" height="100" relative="1" as="geometry">
            <mxPoint x="1171" y="110" as="sourcePoint" />
            <mxPoint x="651" y="50" as="targetPoint" />
          </mxGeometry>
        </mxCell>
        <mxCell id="0o5YoTxNY9EOvEFGqfGp-297" value="Stereo" style="whiteSpace=wrap;rounded=1;fillColor=#999999;strokeColor=none;shadow=1;fontColor=#FFFFFF;fontStyle=0" vertex="1" parent="1">
          <mxGeometry x="1649.9999999999998" y="384.0000000000001" width="120" height="60" as="geometry" />
        </mxCell>
        <mxCell id="0o5YoTxNY9EOvEFGqfGp-298" value="Spatial" style="whiteSpace=wrap;rounded=1;fillColor=#999999;strokeColor=none;shadow=1;fontColor=#FFFFFF;fontStyle=0" vertex="1" parent="1">
          <mxGeometry x="1650" y="464.0000000000001" width="120" height="60" as="geometry" />
        </mxCell>
        <mxCell id="0o5YoTxNY9EOvEFGqfGp-299" value="" style="edgeStyle=elbowEdgeStyle;elbow=horizontal;rounded=0;fontColor=#000000;endArrow=none;endFill=0;strokeWidth=8;strokeColor=#23445D;" edge="1" parent="1" target="0o5YoTxNY9EOvEFGqfGp-297">
          <mxGeometry width="100" height="100" relative="1" as="geometry">
            <mxPoint x="1649.9999999999995" y="314" as="sourcePoint" />
            <mxPoint x="1639.9999999999995" y="414" as="targetPoint" />
            <Array as="points">
              <mxPoint x="1630" y="364" />
            </Array>
          </mxGeometry>
        </mxCell>
        <mxCell id="0o5YoTxNY9EOvEFGqfGp-300" value="" style="edgeStyle=elbowEdgeStyle;elbow=horizontal;rounded=0;fontColor=#000000;endArrow=none;endFill=0;strokeWidth=8;strokeColor=#23445D;" edge="1" parent="1" target="0o5YoTxNY9EOvEFGqfGp-298">
          <mxGeometry width="100" height="100" relative="1" as="geometry">
            <mxPoint x="1649.9999999999995" y="314" as="sourcePoint" />
            <mxPoint x="1639.9999999999998" y="494" as="targetPoint" />
            <Array as="points">
              <mxPoint x="1630" y="404" />
            </Array>
          </mxGeometry>
        </mxCell>
        <mxCell id="0o5YoTxNY9EOvEFGqfGp-301" value="Mono" style="whiteSpace=wrap;rounded=1;fillColor=#999999;strokeColor=none;shadow=1;fontColor=#FFFFFF;fontStyle=0" vertex="1" parent="1">
          <mxGeometry x="1649.9999999999998" y="281.0000000000001" width="120" height="60" as="geometry" />
        </mxCell>
        <mxCell id="0o5YoTxNY9EOvEFGqfGp-302" value="" style="edgeStyle=elbowEdgeStyle;elbow=vertical;rounded=0;fontColor=#000000;endArrow=none;endFill=0;strokeWidth=8;strokeColor=#23445D;" edge="1" parent="1">
          <mxGeometry width="100" height="100" relative="1" as="geometry">
            <mxPoint x="599" y="230" as="sourcePoint" />
            <mxPoint x="1139" y="289.9999999999998" as="targetPoint" />
          </mxGeometry>
        </mxCell>
        <mxCell id="0o5YoTxNY9EOvEFGqfGp-303" value="" style="edgeStyle=elbowEdgeStyle;elbow=vertical;rounded=0;fontColor=#000000;endArrow=none;endFill=0;strokeWidth=8;strokeColor=#23445D;exitX=0.5;exitY=1;exitDx=0;exitDy=0;" edge="1" parent="1" source="0o5YoTxNY9EOvEFGqfGp-242">
          <mxGeometry width="100" height="100" relative="1" as="geometry">
            <mxPoint x="640" y="230" as="sourcePoint" />
            <mxPoint x="70" y="289.9999999999998" as="targetPoint" />
          </mxGeometry>
        </mxCell>
        <mxCell id="0o5YoTxNY9EOvEFGqfGp-308" value="" style="edgeStyle=elbowEdgeStyle;elbow=vertical;rounded=0;fontColor=#000000;endArrow=none;endFill=0;strokeWidth=8;strokeColor=#23445D;entryX=0.15;entryY=0.471;entryDx=0;entryDy=0;entryPerimeter=0;" edge="1" parent="1">
          <mxGeometry width="100" height="100" relative="1" as="geometry">
            <mxPoint x="599" y="232" as="sourcePoint" />
            <mxPoint x="234" y="291.71000000000004" as="targetPoint" />
          </mxGeometry>
        </mxCell>
        <mxCell id="0o5YoTxNY9EOvEFGqfGp-309" value="" style="edgeStyle=elbowEdgeStyle;elbow=vertical;rounded=0;fontColor=#000000;endArrow=none;endFill=0;strokeWidth=8;strokeColor=#23445D;" edge="1" parent="1">
          <mxGeometry width="100" height="100" relative="1" as="geometry">
            <mxPoint x="1709" y="230" as="sourcePoint" />
            <mxPoint x="1709" y="280" as="targetPoint" />
            <Array as="points">
              <mxPoint x="1859" y="256" />
            </Array>
          </mxGeometry>
        </mxCell>
        <mxCell id="0o5YoTxNY9EOvEFGqfGp-314" value="SUB-TASK 1" style="whiteSpace=wrap;rounded=1;fillColor=#12AAB5;strokeColor=none;shadow=1;fontColor=#FFFFFF;" vertex="1" parent="1">
          <mxGeometry x="1879.9999999999998" y="210.0000000000001" width="120" height="60" as="geometry" />
        </mxCell>
        <mxCell id="0o5YoTxNY9EOvEFGqfGp-315" value="Signal" style="whiteSpace=wrap;rounded=1;fillColor=#12AAB5;strokeColor=none;shadow=1;fontColor=#FFFFFF;" vertex="1" parent="1">
          <mxGeometry x="9.999999999999773" y="290.0000000000001" width="120" height="60" as="geometry" />
        </mxCell>
        <mxCell id="0o5YoTxNY9EOvEFGqfGp-316" value="Production" style="whiteSpace=wrap;rounded=1;fillColor=#12AAB5;strokeColor=none;shadow=1;fontColor=#FFFFFF;" vertex="1" parent="1">
          <mxGeometry x="179.99999999999977" y="290.0000000000001" width="120" height="60" as="geometry" />
        </mxCell>
        <mxCell id="0o5YoTxNY9EOvEFGqfGp-317" value="Behaviour" style="whiteSpace=wrap;rounded=1;fillColor=#12AAB5;strokeColor=none;shadow=1;fontColor=#FFFFFF;" vertex="1" parent="1">
          <mxGeometry x="359.9999999999998" y="290.0000000000001" width="120" height="60" as="geometry" />
        </mxCell>
        <mxCell id="0o5YoTxNY9EOvEFGqfGp-318" value="Assessment" style="whiteSpace=wrap;rounded=1;fillColor=#12AAB5;strokeColor=none;shadow=1;fontColor=#FFFFFF;" vertex="1" parent="1">
          <mxGeometry x="540.9999999999998" y="290.0000000000001" width="120" height="60" as="geometry" />
        </mxCell>
        <mxCell id="0o5YoTxNY9EOvEFGqfGp-319" value="Saliency" style="whiteSpace=wrap;rounded=1;fillColor=#12AAB5;strokeColor=none;shadow=1;fontColor=#FFFFFF;" vertex="1" parent="1">
          <mxGeometry x="719.9999999999998" y="290.0000000000001" width="120" height="60" as="geometry" />
        </mxCell>
        <mxCell id="0o5YoTxNY9EOvEFGqfGp-320" value="Principal Properties" style="whiteSpace=wrap;rounded=1;fillColor=#12AAB5;strokeColor=none;shadow=1;fontColor=#FFFFFF;" vertex="1" parent="1">
          <mxGeometry x="909.9999999999998" y="290.0000000000001" width="120" height="60" as="geometry" />
        </mxCell>
        <mxCell id="0o5YoTxNY9EOvEFGqfGp-321" value="Shooting Environment" style="whiteSpace=wrap;rounded=1;fillColor=#12AAB5;strokeColor=none;shadow=1;fontColor=#FFFFFF;" vertex="1" parent="1">
          <mxGeometry x="1079.9999999999998" y="290.0000000000001" width="120" height="60" as="geometry" />
        </mxCell>
        <mxCell id="0o5YoTxNY9EOvEFGqfGp-322" value="" style="edgeStyle=elbowEdgeStyle;elbow=vertical;rounded=0;fontColor=#000000;endArrow=none;endFill=0;strokeWidth=8;strokeColor=#23445D;entryX=0.31;entryY=0.3;entryDx=0;entryDy=0;entryPerimeter=0;" edge="1" parent="1">
          <mxGeometry width="100" height="100" relative="1" as="geometry">
            <mxPoint x="600.5" y="234" as="sourcePoint" />
            <mxPoint x="419.5999999999999" y="290" as="targetPoint" />
          </mxGeometry>
        </mxCell>
        <mxCell id="0o5YoTxNY9EOvEFGqfGp-323" value="" style="edgeStyle=elbowEdgeStyle;elbow=vertical;rounded=0;fontColor=#000000;endArrow=none;endFill=0;strokeWidth=8;strokeColor=#23445D;entryX=0.395;entryY=-0.048;entryDx=0;entryDy=0;entryPerimeter=0;" edge="1" parent="1">
          <mxGeometry width="100" height="100" relative="1" as="geometry">
            <mxPoint x="600" y="290" as="sourcePoint" />
            <mxPoint x="600.0000000000001" y="243.1199999999999" as="targetPoint" />
          </mxGeometry>
        </mxCell>
        <mxCell id="0o5YoTxNY9EOvEFGqfGp-328" value="" style="edgeStyle=elbowEdgeStyle;elbow=vertical;rounded=0;fontColor=#000000;endArrow=none;endFill=0;strokeWidth=8;strokeColor=#23445D;" edge="1" parent="1">
          <mxGeometry width="100" height="100" relative="1" as="geometry">
            <mxPoint x="600" y="230" as="sourcePoint" />
            <mxPoint x="780" y="290" as="targetPoint" />
          </mxGeometry>
        </mxCell>
        <mxCell id="0o5YoTxNY9EOvEFGqfGp-329" value="" style="edgeStyle=elbowEdgeStyle;elbow=vertical;rounded=0;fontColor=#000000;endArrow=none;endFill=0;strokeWidth=8;strokeColor=#23445D;" edge="1" parent="1">
          <mxGeometry width="100" height="100" relative="1" as="geometry">
            <mxPoint x="599" y="230" as="sourcePoint" />
            <mxPoint x="969" y="290" as="targetPoint" />
          </mxGeometry>
        </mxCell>
      </root>
    </mxGraphModel>
  </diagram>
</mxfile>
